# xmcd
# 
# Track frame offsets:
#   150
#   14907
#   28643
#   58996
#   73753
#   87489
#   113342
# 
# Disc length: 1717 seconds
# 
# Revision: 5
# Processed by: cddbd v1.5.1PL0 Copyright (c) Steve Scherf et al.
# Submitted via: VOLTOCDX V1.0.24 
# 
DISCID=5f06b307
DTITLE=Bowling for soup - track #1
DYEAR=1998
DGENRE=extended genre
TTITLE0=Almost
TTITLE1=
TTITLE2=
TTITLE3=
TTITLE4=
TTITLE5=
TTITLE6=
EXTD=Copyright @ MadzCDDuplicator
EXTT0=
EXTT1=
EXTT2=
EXTT3=
EXTT4=
EXTT5=
EXTT6=
PLAYORDER=
